<svg width="229" height="65" viewBox="0 0 229 65" fill="none" xmlns="http://www.w3.org/2000/svg">
  <g clip-path="url(#clip0_54_1578)">
    <path
      d="M34.9504 8.79347L32.3579 10.2264H30.54V8.79347H29.5874L27.7457 9.82364V8.79347H26.795L24.2025 10.2264H22.3837V8.79347H21.4311L20.3511 9.39921V0H19.3368L16.1864 1.75128H13.8107V0H12.7964L1.19835 6.50239L0.900024 6.67031V50H8.50345L11.5931 48.2611V50H17.9575L19.7475 48.9904V50H26.1118L35.9 44.4886V8.79347H34.9504ZM34.3845 11.033V43.6336L26.5385 47.847V15.2073L34.3845 11.033ZM25.021 15.6368V48.429H21.266V15.6368H25.021ZM13.1107 15.6368H16.8656V48.429H13.1097L13.1107 15.6368ZM2.50504 48.3435V8.08678H7.33599V48.3435H2.50504ZM11.5981 14.3069V46.2873L8.93105 47.7172V7.61291L18.7521 2.38792V10.2955L11.5981 14.3069ZM18.3861 47.847V15.2073L19.7535 14.48V47.1125L18.3861 47.847Z"
    />
  </g>
  <path
    d="M86.636 24.9H79.66V44.5H75.356V24.9H68.38V21.364H86.636V24.9ZM97.2955 32.372C98.1062 32.372 98.8102 32.2707 99.4075 32.068C100.016 31.8653 100.512 31.588 100.896 31.236C101.29 30.8733 101.584 30.4467 101.776 29.956C101.968 29.4653 102.064 28.9267 102.064 28.34C102.064 27.1667 101.674 26.2653 100.896 25.636C100.128 25.0067 98.9489 24.692 97.3595 24.692H94.6075V32.372H97.2955ZM108.368 44.5H104.48C103.744 44.5 103.21 44.212 102.88 43.636L98.0155 36.228C97.8342 35.9507 97.6315 35.7533 97.4075 35.636C97.1942 35.5187 96.8742 35.46 96.4475 35.46H94.6075V44.5H90.3035V21.364H97.3595C98.9275 21.364 100.272 21.5293 101.392 21.86C102.522 22.18 103.445 22.6333 104.16 23.22C104.885 23.8067 105.418 24.5107 105.76 25.332C106.101 26.1427 106.272 27.0387 106.272 28.02C106.272 28.7987 106.154 29.5347 105.92 30.228C105.696 30.9213 105.365 31.5507 104.928 32.116C104.501 32.6813 103.968 33.1773 103.328 33.604C102.698 34.0307 101.978 34.3667 101.168 34.612C101.445 34.772 101.701 34.964 101.936 35.188C102.17 35.4013 102.384 35.6573 102.576 35.956L108.368 44.5ZM133.479 40.948V44.5H119.927V21.364H124.231V40.948H133.479ZM140.664 28.084V44.5H136.696V28.084H140.664ZM141.208 23.3C141.208 23.6413 141.139 23.9613 141 24.26C140.862 24.5587 140.675 24.82 140.44 25.044C140.216 25.268 139.95 25.4493 139.64 25.588C139.331 25.716 139 25.78 138.648 25.78C138.307 25.78 137.982 25.716 137.672 25.588C137.374 25.4493 137.112 25.268 136.888 25.044C136.664 24.82 136.483 24.5587 136.344 24.26C136.216 23.9613 136.152 23.6413 136.152 23.3C136.152 22.948 136.216 22.6173 136.344 22.308C136.483 21.9987 136.664 21.732 136.888 21.508C137.112 21.284 137.374 21.108 137.672 20.98C137.982 20.8413 138.307 20.772 138.648 20.772C139 20.772 139.331 20.8413 139.64 20.98C139.95 21.108 140.216 21.284 140.44 21.508C140.675 21.732 140.862 21.9987 141 22.308C141.139 22.6173 141.208 22.948 141.208 23.3ZM149.285 40.244C149.733 40.788 150.219 41.172 150.741 41.396C151.275 41.62 151.835 41.732 152.421 41.732C153.029 41.732 153.573 41.6253 154.053 41.412C154.544 41.188 154.96 40.8467 155.301 40.388C155.643 39.9187 155.904 39.3267 156.085 38.612C156.267 37.8867 156.357 37.0227 156.357 36.02C156.357 34.2173 156.059 32.916 155.461 32.116C154.864 31.3053 154.005 30.9 152.885 30.9C152.128 30.9 151.467 31.076 150.901 31.428C150.336 31.7693 149.797 32.2547 149.285 32.884V40.244ZM149.285 30.1C149.947 29.4067 150.677 28.8573 151.477 28.452C152.288 28.036 153.211 27.828 154.245 27.828C155.195 27.828 156.048 28.0147 156.805 28.388C157.573 28.7613 158.224 29.3 158.757 30.004C159.301 30.6973 159.717 31.54 160.005 32.532C160.293 33.524 160.437 34.6387 160.437 35.876C160.437 37.2093 160.272 38.42 159.941 39.508C159.611 40.596 159.136 41.5293 158.517 42.308C157.909 43.076 157.173 43.6733 156.309 44.1C155.445 44.5267 154.485 44.74 153.429 44.74C152.917 44.74 152.453 44.6867 152.037 44.58C151.621 44.484 151.237 44.3453 150.885 44.164C150.533 43.9827 150.208 43.764 149.909 43.508C149.621 43.2413 149.344 42.948 149.077 42.628L148.901 43.732C148.837 44.0093 148.725 44.2067 148.565 44.324C148.416 44.4413 148.208 44.5 147.941 44.5H145.333V20.724H149.285V30.1ZM167.858 30.932C168.37 29.9507 168.978 29.1827 169.682 28.628C170.386 28.0627 171.218 27.78 172.178 27.78C172.935 27.78 173.543 27.9453 174.002 28.276L173.746 31.236C173.692 31.428 173.612 31.5667 173.506 31.652C173.41 31.7267 173.276 31.764 173.106 31.764C172.946 31.764 172.706 31.7373 172.386 31.684C172.076 31.6307 171.772 31.604 171.474 31.604C171.036 31.604 170.647 31.668 170.306 31.796C169.964 31.924 169.655 32.1107 169.378 32.356C169.111 32.5907 168.871 32.8787 168.658 33.22C168.455 33.5613 168.263 33.9507 168.082 34.388V44.5H164.13V28.084H166.45C166.855 28.084 167.138 28.1587 167.298 28.308C167.458 28.4467 167.564 28.7027 167.618 29.076L167.858 30.932ZM185.16 37.492C184.019 37.5453 183.059 37.6467 182.28 37.796C181.502 37.9347 180.878 38.116 180.408 38.34C179.939 38.564 179.603 38.8253 179.4 39.124C179.198 39.4227 179.096 39.748 179.096 40.1C179.096 40.7933 179.299 41.2893 179.704 41.588C180.12 41.8867 180.659 42.036 181.32 42.036C182.131 42.036 182.83 41.892 183.416 41.604C184.014 41.3053 184.595 40.8573 185.16 40.26V37.492ZM176.104 30.372C177.992 28.644 180.264 27.78 182.92 27.78C183.88 27.78 184.739 27.94 185.496 28.26C186.254 28.5693 186.894 29.0067 187.416 29.572C187.939 30.1267 188.334 30.7933 188.6 31.572C188.878 32.3507 189.016 33.204 189.016 34.132V44.5H187.224C186.851 44.5 186.563 44.4467 186.36 44.34C186.158 44.2227 185.998 43.9933 185.88 43.652L185.528 42.468C185.112 42.8413 184.707 43.172 184.312 43.46C183.918 43.7373 183.507 43.972 183.08 44.164C182.654 44.356 182.195 44.5 181.704 44.596C181.224 44.7027 180.691 44.756 180.104 44.756C179.411 44.756 178.771 44.6653 178.184 44.484C177.598 44.292 177.091 44.0093 176.664 43.636C176.238 43.2627 175.907 42.7987 175.672 42.244C175.438 41.6893 175.32 41.044 175.32 40.308C175.32 39.892 175.39 39.4813 175.528 39.076C175.667 38.66 175.891 38.2653 176.2 37.892C176.52 37.5187 176.931 37.1667 177.432 36.836C177.934 36.5053 178.547 36.2173 179.272 35.972C180.008 35.7267 180.862 35.5293 181.832 35.38C182.803 35.22 183.912 35.124 185.16 35.092V34.132C185.16 33.0333 184.926 32.2227 184.456 31.7C183.987 31.1667 183.31 30.9 182.424 30.9C181.784 30.9 181.251 30.9747 180.824 31.124C180.408 31.2733 180.04 31.444 179.72 31.636C179.4 31.8173 179.107 31.9827 178.84 32.132C178.584 32.2813 178.296 32.356 177.976 32.356C177.699 32.356 177.464 32.2867 177.272 32.148C177.08 31.9987 176.926 31.828 176.808 31.636L176.104 30.372ZM197.106 30.932C197.618 29.9507 198.226 29.1827 198.93 28.628C199.634 28.0627 200.466 27.78 201.426 27.78C202.184 27.78 202.792 27.9453 203.25 28.276L202.994 31.236C202.941 31.428 202.861 31.5667 202.754 31.652C202.658 31.7267 202.525 31.764 202.354 31.764C202.194 31.764 201.954 31.7373 201.634 31.684C201.325 31.6307 201.021 31.604 200.722 31.604C200.285 31.604 199.896 31.668 199.554 31.796C199.213 31.924 198.904 32.1107 198.626 32.356C198.36 32.5907 198.12 32.8787 197.906 33.22C197.704 33.5613 197.512 33.9507 197.33 34.388V44.5H193.378V28.084H195.698C196.104 28.084 196.386 28.1587 196.546 28.308C196.706 28.4467 196.813 28.7027 196.866 29.076L197.106 30.932ZM220.868 28.084L211.924 49.012C211.806 49.2893 211.652 49.4973 211.46 49.636C211.278 49.7853 210.996 49.86 210.612 49.86H207.668L210.74 43.268L204.1 28.084H207.572C207.881 28.084 208.121 28.1587 208.292 28.308C208.473 28.4573 208.606 28.628 208.692 28.82L212.18 37.332C212.297 37.62 212.393 37.908 212.468 38.196C212.553 38.484 212.633 38.7773 212.708 39.076C212.804 38.7773 212.9 38.484 212.996 38.196C213.092 37.8973 213.198 37.604 213.316 37.316L216.612 28.82C216.697 28.6067 216.836 28.4307 217.028 28.292C217.23 28.1533 217.454 28.084 217.7 28.084H220.868Z"
  />
  <defs>
    <clipPath id="clip0_54_1578">
      <rect width="47" height="65" transform="translate(0.900024)" />
    </clipPath>
  </defs>
</svg>