<svg width="26" height="26" viewBox="0 0 26 26" fill="none" xmlns="http://www.w3.org/2000/svg">
  <path
    d="M22.3165 4.44157V6.8249C22.3165 7.69157 21.7748 8.7749 21.2331 9.31657L16.5748 13.4332C15.9248 13.9749 15.4915 15.0582 15.4915 15.9249V20.5832C15.4915 21.2332 15.0581 22.0999 14.5165 22.4249L12.9998 23.3999C11.5915 24.2666 9.64146 23.2916 9.64146 21.5582V15.8166C9.64146 15.0582 9.20813 14.0832 8.77479 13.5416L8.26563 13.0107C7.92979 12.6532 7.86479 12.1116 8.13563 11.6891L13.6823 2.78407C13.8773 2.4699 14.224 2.2749 14.6031 2.2749H20.1498C21.3415 2.2749 22.3165 3.2499 22.3165 4.44157Z" />
  <path
    d="M11.2123 3.9324L7.36644 10.0966C6.99811 10.6924 6.15311 10.7791 5.66561 10.2699L4.65811 9.20824C4.11644 8.66657 3.68311 7.69157 3.68311 7.04157V4.5499C3.68311 3.2499 4.65811 2.2749 5.84977 2.2749H10.2914C11.1364 2.2749 11.6564 3.20657 11.2123 3.9324Z" />
</svg>