<svg width="19" height="13" viewBox="0 0 19 13" fill="none" xmlns="http://www.w3.org/2000/svg">
  <path
    d="M14.5537 0.0761719H4.44633C3.72108 0.0761719 3.04202 0.419748 2.62839 0.99599L1.09924 3.12639C0.566648 3.86842 0.650762 4.871 1.29991 5.52032L8.14763 12.369C8.88704 13.1084 10.113 13.1084 10.8524 12.369L17.7001 5.52032C18.3494 4.871 18.4334 3.86842 17.9008 3.12639L16.3716 0.995861C15.9581 0.419748 15.2789 0.0761719 14.5537 0.0761719Z"
    fill="#FBD48A" />
  <path
    d="M6.87248 0.0761719H4.44637C3.72112 0.0761719 3.04206 0.419748 2.62843 0.99599L1.09928 3.12639C0.566691 3.86842 0.650672 4.871 1.29996 5.52032L8.14768 12.369C8.47479 12.6962 8.89697 12.8786 9.33022 12.9162C9.33022 12.9162 4.64625 7.42503 4.64625 4.40309C4.64638 2.45331 5.94842 0.919424 6.87248 0.0761719Z"
    fill="white" />
  <path
    d="M12.6052 4.40285H18.2388C18.2866 3.96425 18.176 3.51028 17.9004 3.12616L16.371 0.995626C16.1574 0.697757 15.8726 0.462121 15.5472 0.303955L12.6052 4.40285Z"
    fill="#FFE9C9" />
  <path d="M6.39453 4.40309H12.6059L9.50023 0.0761719L6.39453 4.40309Z" fill="white" />
  <path
    d="M3.45233 0.303955C3.12695 0.462251 2.8423 0.697757 2.62854 0.995626L1.09926 3.12629C0.82355 3.51028 0.712999 3.96425 0.760798 4.40285H6.39433L3.45233 0.303955Z"
    fill="#FFE9C9" />
  <path
    d="M0.759766 4.40332C0.804093 4.81197 0.985807 5.20732 1.2989 5.52056L8.14662 12.3692C8.88603 13.1087 10.112 13.1087 10.8514 12.3692L17.6991 5.52056C18.0122 5.20732 18.1938 4.81197 18.2382 4.40332H0.759766Z"
    fill="#FBD48A" />
  <path
    d="M9.3293 12.9165L6.3933 4.40332H0.759766C0.804093 4.81197 0.985807 5.20732 1.2989 5.52056L8.14662 12.3692C8.47373 12.6964 8.89591 12.8788 9.3293 12.9165Z"
    fill="white" />
  <path
    d="M9.6709 12.9165L12.6072 4.40332H18.2407C18.1964 4.81197 18.0147 5.20732 17.7016 5.52056L10.8538 12.3692C10.5267 12.6964 10.1042 12.8788 9.6709 12.9165Z"
    fill="white" />
  <path
    d="M4.64532 4.40332H0.759766C0.804093 4.81197 0.985807 5.20732 1.2989 5.52056L8.14662 12.3692C8.47373 12.6964 8.89591 12.8788 9.3293 12.9165C9.3293 12.9165 4.64532 7.42527 4.64532 4.40332Z"
    fill="white" />
  <path
    d="M4.64635 4.40285C4.64635 3.72383 4.8043 3.09517 5.04917 2.52861L3.45233 0.303955C3.12695 0.462121 2.8423 0.697757 2.62854 0.995626L1.09926 3.12629C0.82355 3.51028 0.712999 3.96425 0.760798 4.40285H4.64635Z"
    fill="#FBD48A" />
</svg>