<svg width="20" height="21" viewBox="0 0 20 21" fill="none" xmlns="http://www.w3.org/2000/svg">
<path d="M13.07 9.75L12.17 10.67C11.45 11.39 11 12 11 13.5H9V13C9 11.89 9.45 10.89 10.17 10.17L11.41 8.91C11.78 8.55 12 8.05 12 7.5C12 6.96957 11.7893 6.46086 11.4142 6.08579C11.0391 5.71071 10.5304 5.5 10 5.5C9.46957 5.5 8.96086 5.71071 8.58579 6.08579C8.21071 6.46086 8 6.96957 8 7.5H6C6 6.43913 6.42143 5.42172 7.17157 4.67157C7.92172 3.92143 8.93913 3.5 10 3.5C11.0609 3.5 12.0783 3.92143 12.8284 4.67157C13.5786 5.42172 14 6.43913 14 7.5C13.9986 8.34324 13.6643 9.15183 13.07 9.75ZM11 17.5H9V15.5H11M10 0.5C8.68678 0.5 7.38642 0.758658 6.17317 1.2612C4.95991 1.76375 3.85752 2.50035 2.92893 3.42893C1.05357 5.3043 0 7.84784 0 10.5C0 13.1522 1.05357 15.6957 2.92893 17.5711C3.85752 18.4997 4.95991 19.2362 6.17317 19.7388C7.38642 20.2413 8.68678 20.5 10 20.5C12.6522 20.5 15.1957 19.4464 17.0711 17.5711C18.9464 15.6957 20 13.1522 20 10.5C20 4.97 15.5 0.5 10 0.5Z" fill="#242D3F"/>
<path d="M13.07 9.75L12.17 10.67C11.45 11.39 11 12 11 13.5H9V13C9 11.89 9.45 10.89 10.17 10.17L11.41 8.91C11.78 8.55 12 8.05 12 7.5C12 6.96957 11.7893 6.46086 11.4142 6.08579C11.0391 5.71071 10.5304 5.5 10 5.5C9.46957 5.5 8.96086 5.71071 8.58579 6.08579C8.21071 6.46086 8 6.96957 8 7.5H6C6 6.43913 6.42143 5.42172 7.17157 4.67157C7.92172 3.92143 8.93913 3.5 10 3.5C11.0609 3.5 12.0783 3.92143 12.8284 4.67157C13.5786 5.42172 14 6.43913 14 7.5C13.9986 8.34324 13.6643 9.15183 13.07 9.75ZM11 17.5H9V15.5H11M10 0.5C8.68678 0.5 7.38642 0.758658 6.17317 1.2612C4.95991 1.76375 3.85752 2.50035 2.92893 3.42893C1.05357 5.3043 0 7.84784 0 10.5C0 13.1522 1.05357 15.6957 2.92893 17.5711C3.85752 18.4997 4.95991 19.2362 6.17317 19.7388C7.38642 20.2413 8.68678 20.5 10 20.5C12.6522 20.5 15.1957 19.4464 17.0711 17.5711C18.9464 15.6957 20 13.1522 20 10.5C20 4.97 15.5 0.5 10 0.5Z" fill="#4D809C"/>
</svg>
