<svg width="21" height="21" viewBox="0 0 21 21" fill="none" xmlns="http://www.w3.org/2000/svg">
  <path
    d="M15.3612 9.91178C15.0195 9.91178 14.7362 9.62845 14.7362 9.28678V7.62012C14.7362 4.99512 13.9945 3.24512 10.3612 3.24512C6.72787 3.24512 5.98621 4.99512 5.98621 7.62012V9.28678C5.98621 9.62845 5.70287 9.91178 5.36121 9.91178C5.01954 9.91178 4.73621 9.62845 4.73621 9.28678V7.62012C4.73621 5.20345 5.31954 1.99512 10.3612 1.99512C15.4029 1.99512 15.9862 5.20345 15.9862 7.62012V9.28678C15.9862 9.62845 15.7029 9.91178 15.3612 9.91178Z"
  />
  <path
    d="M10.3612 16.995C8.86953 16.995 7.65286 15.7784 7.65286 14.2867C7.65286 12.795 8.86953 11.5784 10.3612 11.5784C11.8529 11.5784 13.0695 12.795 13.0695 14.2867C13.0695 15.7784 11.8529 16.995 10.3612 16.995ZM10.3612 12.8284C9.5612 12.8284 8.90286 13.4867 8.90286 14.2867C8.90286 15.0867 9.5612 15.745 10.3612 15.745C11.1612 15.745 11.8195 15.0867 11.8195 14.2867C11.8195 13.4867 11.1612 12.8284 10.3612 12.8284Z"
  />
  <path
    d="M14.5279 19.9116H6.19456C2.51956 19.9116 1.40289 18.795 1.40289 15.12V13.4533C1.40289 9.77829 2.51956 8.66162 6.19456 8.66162H14.5279C18.2029 8.66162 19.3196 9.77829 19.3196 13.4533V15.12C19.3196 18.795 18.2029 19.9116 14.5279 19.9116ZM6.19456 9.91162C3.21123 9.91162 2.65289 10.4783 2.65289 13.4533V15.12C2.65289 18.095 3.21123 18.6616 6.19456 18.6616H14.5279C17.5112 18.6616 18.0696 18.095 18.0696 15.12V13.4533C18.0696 10.4783 17.5112 9.91162 14.5279 9.91162H6.19456Z"
  />
</svg>