<svg width="19" height="23" viewBox="0 0 19 23" fill="none" xmlns="http://www.w3.org/2000/svg">
  <path
    d="M9.37671 13.665C7.24671 13.665 5.50671 11.935 5.50671 9.795C5.50671 7.655 7.24671 5.935 9.37671 5.935C11.5067 5.935 13.2467 7.665 13.2467 9.805C13.2467 11.945 11.5067 13.665 9.37671 13.665ZM9.37671 7.435C8.07671 7.435 7.00671 8.495 7.00671 9.805C7.00671 11.115 8.06671 12.175 9.37671 12.175C10.6867 12.175 11.7467 11.115 11.7467 9.805C11.7467 8.495 10.6767 7.435 9.37671 7.435Z"
  />
  <path
    d="M9.37664 22.255C7.89664 22.255 6.40664 21.695 5.24664 20.585C2.29664 17.745 -0.963359 13.215 0.266641 7.825C1.37664 2.935 5.64664 0.744995 9.37664 0.744995C9.37664 0.744995 9.37664 0.744995 9.38664 0.744995C13.1166 0.744995 17.3866 2.935 18.4966 7.835C19.7166 13.225 16.4566 17.745 13.5066 20.585C12.3466 21.695 10.8566 22.255 9.37664 22.255ZM9.37664 2.245C6.46664 2.245 2.72664 3.79499 1.73664 8.15499C0.656641 12.865 3.61664 16.925 6.29664 19.495C8.02664 21.165 10.7366 21.165 12.4666 19.495C15.1366 16.925 18.0966 12.865 17.0366 8.15499C16.0366 3.79499 12.2866 2.245 9.37664 2.245Z"
  />
</svg>