<svg width="24" height="25" viewBox="0 0 24 25" fill="none" xmlns="http://www.w3.org/2000/svg">
<path d="M12.1596 11.6544C12.1296 11.6544 12.1096 11.6544 12.0796 11.6544C12.0296 11.6444 11.9596 11.6444 11.8996 11.6544C8.9996 11.5644 6.8096 9.28442 6.8096 6.47442C6.8096 3.61442 9.1396 1.28442 11.9996 1.28442C14.8596 1.28442 17.1896 3.61442 17.1896 6.47442C17.1796 9.28442 14.9796 11.5644 12.1896 11.6544C12.1796 11.6544 12.1696 11.6544 12.1596 11.6544ZM11.9996 2.78442C9.9696 2.78442 8.3096 4.44442 8.3096 6.47442C8.3096 8.47442 9.8696 10.0844 11.8596 10.1544C11.9096 10.1444 12.0496 10.1444 12.1796 10.1544C14.1396 10.0644 15.6796 8.45442 15.6896 6.47442C15.6896 4.44442 14.0296 2.78442 11.9996 2.78442Z" fill="#9D9AA4"/>
<path d="M12.1696 22.5844C10.2096 22.5844 8.23961 22.0844 6.74961 21.0844C5.35961 20.1644 4.59961 18.9044 4.59961 17.5344C4.59961 16.1644 5.35961 14.8944 6.74961 13.9644C9.74961 11.9744 14.6096 11.9744 17.5896 13.9644C18.9696 14.8844 19.7396 16.1444 19.7396 17.5144C19.7396 18.8844 18.9796 20.1544 17.5896 21.0844C16.0896 22.0844 14.1296 22.5844 12.1696 22.5844ZM7.57961 15.2244C6.61961 15.8644 6.09961 16.6844 6.09961 17.5444C6.09961 18.3944 6.62961 19.2144 7.57961 19.8444C10.0696 21.5144 14.2696 21.5144 16.7596 19.8444C17.7196 19.2044 18.2396 18.3844 18.2396 17.5244C18.2396 16.6744 17.7096 15.8544 16.7596 15.2244C14.2696 13.5644 10.0696 13.5644 7.57961 15.2244Z" fill="#9D9AA4"/>
</svg>
