<svg width="31" height="30" viewBox="0 0 31 30" fill="none" xmlns="http://www.w3.org/2000/svg">
  <path
    d="M15.625 25.6624C12.7125 25.6624 9.79998 25.1999 7.03748 24.2749C5.98748 23.9124 5.18748 23.1749 4.83748 22.2124C4.47498 21.2499 4.59998 20.1874 5.17498 19.2374L6.61248 16.8499C6.91248 16.3499 7.18748 15.3499 7.18748 14.7624V11.1499C7.18748 6.4999 10.975 2.7124 15.625 2.7124C20.275 2.7124 24.0625 6.4999 24.0625 11.1499V14.7624C24.0625 15.3374 24.3375 16.3499 24.6375 16.8624L26.0625 19.2374C26.6 20.1374 26.7 21.2249 26.3375 22.2124C25.975 23.1999 25.1875 23.9499 24.2 24.2749C21.45 25.1999 18.5375 25.6624 15.625 25.6624ZM15.625 4.5874C12.0125 4.5874 9.06248 7.5249 9.06248 11.1499V14.7624C9.06248 15.6749 8.68748 17.0249 8.22498 17.8124L6.78748 20.1999C6.51248 20.6624 6.43748 21.1499 6.59998 21.5624C6.74998 21.9874 7.12498 22.3124 7.63748 22.4874C12.8625 24.2374 18.4 24.2374 23.625 22.4874C24.075 22.3374 24.425 21.9999 24.5875 21.5499C24.75 21.0999 24.7125 20.6124 24.4625 20.1999L23.025 17.8124C22.55 16.9999 22.1875 15.6624 22.1875 14.7499V11.1499C22.1875 7.5249 19.25 4.5874 15.625 4.5874Z"
  />
  <path
    d="M17.95 4.9251C17.8625 4.9251 17.775 4.9126 17.6875 4.8876C17.325 4.7876 16.975 4.7126 16.6375 4.6626C15.575 4.5251 14.55 4.6001 13.5875 4.8876C13.2375 5.0001 12.8625 4.8876 12.625 4.6251C12.3875 4.3626 12.3125 3.9876 12.45 3.6501C12.9625 2.3376 14.2125 1.4751 15.6375 1.4751C17.0625 1.4751 18.3125 2.3251 18.825 3.6501C18.95 3.9876 18.8875 4.3626 18.65 4.6251C18.4625 4.8251 18.2 4.9251 17.95 4.9251Z"
  />
  <path
    d="M15.625 28.5127C14.3875 28.5127 13.1875 28.0127 12.3125 27.1377C11.4375 26.2627 10.9375 25.0627 10.9375 23.8252H12.8125C12.8125 24.5627 13.1125 25.2877 13.6375 25.8127C14.1625 26.3377 14.8875 26.6377 15.625 26.6377C17.175 26.6377 18.4375 25.3752 18.4375 23.8252H20.3125C20.3125 26.4127 18.2125 28.5127 15.625 28.5127Z"
  />
</svg>