<svg width="20" height="21" viewBox="0 0 20 21" fill="none" xmlns="http://www.w3.org/2000/svg">
<path d="M14.1667 18.2084H5.83333C2.79166 18.2084 1.04166 16.4584 1.04166 13.4167V7.58335C1.04166 4.54169 2.79166 2.79169 5.83333 2.79169H14.1667C17.2083 2.79169 18.9583 4.54169 18.9583 7.58335V13.4167C18.9583 16.4584 17.2083 18.2084 14.1667 18.2084ZM5.83333 4.04169C3.45 4.04169 2.29166 5.20002 2.29166 7.58335V13.4167C2.29166 15.8 3.45 16.9584 5.83333 16.9584H14.1667C16.55 16.9584 17.7083 15.8 17.7083 13.4167V7.58335C17.7083 5.20002 16.55 4.04169 14.1667 4.04169H5.83333Z"/>
<path d="M9.99982 11.225C9.29982 11.225 8.59149 11.0083 8.04982 10.5666L5.44148 8.48331C5.17482 8.26664 5.12482 7.87497 5.34149 7.60831C5.55815 7.34164 5.94982 7.29164 6.21649 7.50831L8.82481 9.59164C9.45815 10.1 10.5331 10.1 11.1665 9.59164L13.7748 7.50831C14.0415 7.29164 14.4415 7.33331 14.6498 7.60831C14.8665 7.87497 14.8248 8.27498 14.5498 8.48331L11.9415 10.5666C11.4082 11.0083 10.6998 11.225 9.99982 11.225Z"/>
</svg>
