<svg width="24" height="25" viewBox="0 0 24 25" fill="none" xmlns="http://www.w3.org/2000/svg">
  <path
    d="M8 6.25C7.59 6.25 7.25 5.91 7.25 5.5V2.5C7.25 2.09 7.59 1.75 8 1.75C8.41 1.75 8.75 2.09 8.75 2.5V5.5C8.75 5.91 8.41 6.25 8 6.25Z"
  />
  <path
    d="M16 6.25C15.59 6.25 15.25 5.91 15.25 5.5V2.5C15.25 2.09 15.59 1.75 16 1.75C16.41 1.75 16.75 2.09 16.75 2.5V5.5C16.75 5.91 16.41 6.25 16 6.25Z"
  />
  <path
    d="M8.5 14.9998C8.37 14.9998 8.24 14.9798 8.12 14.9198C8 14.8698 7.88999 14.7998 7.78999 14.7098C7.60999 14.5198 7.5 14.2598 7.5 13.9998C7.5 13.8698 7.53 13.7398 7.58 13.6198C7.63 13.4998 7.69999 13.3898 7.78999 13.2898C7.88999 13.1998 8 13.1298 8.12 13.0798C8.48 12.9298 8.93001 13.0098 9.21001 13.2898C9.30001 13.3898 9.37 13.4998 9.42 13.6198C9.47 13.7398 9.5 13.8698 9.5 13.9998C9.5 14.2598 9.39001 14.5198 9.21001 14.7098C9.02001 14.8898 8.76 14.9998 8.5 14.9998Z"
  />
  <path
    d="M12 14.9999C11.74 14.9999 11.48 14.8899 11.29 14.7099C11.2 14.6099 11.13 14.4999 11.08 14.3799C11.03 14.2599 11 14.1299 11 13.9999C11 13.7399 11.11 13.4799 11.29 13.2899C11.57 13.0099 12.01 12.9199 12.38 13.0799C12.5 13.1299 12.61 13.1999 12.71 13.2899C12.89 13.4799 13 13.7399 13 13.9999C13 14.1299 12.98 14.2599 12.92 14.3799C12.87 14.4999 12.8 14.6099 12.71 14.7099C12.61 14.7999 12.5 14.8699 12.38 14.9199C12.26 14.9799 12.13 14.9999 12 14.9999Z"
  />
  <path
    d="M8.5 18.4999C8.37 18.4999 8.24 18.4699 8.12 18.4199C8 18.3699 7.88999 18.2999 7.78999 18.2099C7.60999 18.0199 7.5 17.7699 7.5 17.4999C7.5 17.3699 7.53 17.2399 7.58 17.1199C7.63 16.9899 7.69999 16.8899 7.78999 16.7899C7.88999 16.6999 8 16.6299 8.12 16.5799C8.48 16.4199 8.93001 16.5099 9.21001 16.7899C9.30001 16.8899 9.37 16.9899 9.42 17.1199C9.47 17.2399 9.5 17.3699 9.5 17.4999C9.5 17.7699 9.39001 18.0199 9.21001 18.2099C9.02001 18.3899 8.76 18.4999 8.5 18.4999Z"
  />
  <path
    d="M20.5 10.3398H3.5C3.09 10.3398 2.75 9.99984 2.75 9.58984C2.75 9.17984 3.09 8.83984 3.5 8.83984H20.5C20.91 8.83984 21.25 9.17984 21.25 9.58984C21.25 9.99984 20.91 10.3398 20.5 10.3398Z"
  />
  <path
    d="M18 24.25C15.38 24.25 13.25 22.12 13.25 19.5C13.25 16.88 15.38 14.75 18 14.75C20.62 14.75 22.75 16.88 22.75 19.5C22.75 22.12 20.62 24.25 18 24.25ZM18 16.25C16.21 16.25 14.75 17.71 14.75 19.5C14.75 21.29 16.21 22.75 18 22.75C19.79 22.75 21.25 21.29 21.25 19.5C21.25 17.71 19.79 16.25 18 16.25Z"
  />
  <path
    d="M19.49 20.2998H16.5C16.09 20.2998 15.75 19.9598 15.75 19.5498C15.75 19.1398 16.09 18.7998 16.5 18.7998H19.49C19.9 18.7998 20.24 19.1398 20.24 19.5498C20.24 19.9598 19.91 20.2998 19.49 20.2998Z"
  />
  <path
    d="M18 21.8298C17.59 21.8298 17.25 21.4898 17.25 21.0798V18.0898C17.25 17.6798 17.59 17.3398 18 17.3398C18.41 17.3398 18.75 17.6798 18.75 18.0898V21.0798C18.75 21.4898 18.41 21.8298 18 21.8298Z"
  />
  <path
    d="M15.37 23.25H8C4.35 23.25 2.25 21.15 2.25 17.5V9C2.25 5.35 4.35 3.25 8 3.25H16C19.65 3.25 21.75 5.35 21.75 9V16.86C21.75 17.17 21.56 17.45 21.26 17.56C20.97 17.67 20.64 17.59 20.43 17.35C19.81 16.65 18.92 16.25 17.99 16.25C16.2 16.25 14.74 17.71 14.74 19.5C14.74 20.09 14.9 20.67 15.21 21.17C15.38 21.47 15.6 21.72 15.84 21.93C16.08 22.13 16.17 22.46 16.06 22.76C15.97 23.05 15.69 23.25 15.37 23.25ZM8 4.75C5.14 4.75 3.75 6.14 3.75 9V17.5C3.75 20.36 5.14 21.75 8 21.75H13.82C13.45 21.07 13.25 20.3 13.25 19.5C13.25 16.88 15.38 14.75 18 14.75C18.79 14.75 19.57 14.95 20.25 15.32V9C20.25 6.14 18.86 4.75 16 4.75H8Z"
  />
</svg>